<svg width="881" height="212" viewBox="0 0 881 212" fill="none" xmlns="http://www.w3.org/2000/svg">
<path d="M62.1087 210.55C50.6782 210.55 40.3132 207.849 31.0137 202.447C21.7143 196.845 14.2554 189.442 8.637 180.239C3.21233 170.835 0.5 160.231 0.5 148.427C0.5 139.624 2.34051 131.421 6.02154 123.818C9.8963 116.015 15.0304 109.312 21.4237 103.71C15.4178 98.3082 10.5744 91.9058 6.89336 84.503C3.21233 77.1003 1.37182 69.2974 1.37182 61.0943C1.37182 49.6901 4.08415 39.3862 9.50882 30.1828C14.9335 20.9793 22.1987 13.7767 31.3044 8.57471C40.41 3.1727 50.4844 0.471688 61.5275 0.471688L115.164 0.47168C126.436 0.471678 135.575 9.92578 135.575 21.588C135.575 33.2827 126.387 42.7501 115.083 42.7042L69.0833 42.4874C63.4649 42.4874 58.6214 44.4881 54.5529 48.4896C50.6782 52.291 48.7408 57.0928 48.7408 62.895C48.7408 68.6971 50.6782 73.4989 54.5529 77.3003C58.6214 81.1018 63.4649 83.0025 69.0833 83.0025H134.37C145.585 83.0025 154.677 92.408 154.677 104.01C154.677 115.613 145.585 125.018 134.37 125.018H70.5363C64.3367 125.018 59.1058 127.119 54.8435 131.321C50.775 135.522 48.7408 140.724 48.7408 146.926C48.7408 153.129 50.775 158.231 54.8435 162.232C59.1058 166.234 64.3367 168.234 70.5363 168.234H94.0426C105.338 168.234 112.436 177.559 114.494 189.392C116.327 199.932 120.725 210.55 107.163 210.55H62.1087Z" fill="url(#paint0_linear_182_1671)"/>
<path d="M164.343 168.234H133.113C120.65 168.234 125.782 177.939 129.447 189.392C133.113 200.846 134.004 209.869 147.116 210.55L164.343 210.55C175.638 210.55 184.795 201.077 184.795 189.392C184.795 177.707 175.638 168.234 164.343 168.234Z" fill="url(#paint1_linear_182_1671)"/>
<path d="M251.958 132.53C243.177 132.53 235.405 130.986 228.643 127.898C221.881 124.811 216.582 120.379 212.747 114.602C208.912 108.826 206.994 102.003 206.994 94.1352C206.994 85.4703 208.861 78.15 212.596 72.1742C216.33 66.0989 221.225 61.5174 227.281 58.43C233.437 55.3425 240.099 53.7987 247.265 53.7987C254.834 53.7987 261.445 55.3923 267.097 58.5793C272.749 61.6668 277.089 66.0491 280.117 71.7261C283.245 77.403 284.81 84.0262 284.81 91.5955C284.81 93.189 284.709 95.0316 284.507 97.1231C284.305 99.115 284.053 100.808 283.75 102.202H234.245C235.052 105.489 236.869 107.929 239.695 109.523C242.521 111.116 246.104 111.913 250.444 111.913H276.18V132.53H251.958ZM233.336 87.1137H259.981C259.881 83.5282 258.72 80.4905 256.499 78.0006C254.279 75.5107 251.1 74.2658 246.962 74.2658C242.723 74.2658 239.493 75.5605 237.273 78.15C235.052 80.6399 233.74 83.6278 233.336 87.1137Z" fill="#313131"/>
<path d="M288.012 132.53V23.4717H314.202V132.53H288.012Z" fill="#313131"/>
<path d="M362.711 132.53C353.93 132.53 346.158 130.986 339.396 127.898C332.634 124.811 327.335 120.379 323.5 114.602C319.665 108.826 317.747 102.003 317.747 94.1352C317.747 85.4703 319.614 78.15 323.349 72.1742C327.083 66.0989 331.978 61.5174 338.034 58.43C344.19 55.3425 350.852 53.7987 358.017 53.7987C365.587 53.7987 372.198 55.3923 377.85 58.5793C383.502 61.6668 387.842 66.0491 390.87 71.7261C393.998 77.403 395.563 84.0262 395.563 91.5955C395.563 93.189 395.462 95.0316 395.26 97.1231C395.058 99.115 394.806 100.808 394.503 102.202H344.998C345.805 105.489 347.622 107.929 350.448 109.523C353.274 111.116 356.857 111.913 361.197 111.913H386.933V132.53H362.711ZM344.089 87.1137H370.734C370.634 83.5282 369.473 80.4905 367.252 78.0006C365.032 75.5107 361.853 74.2658 357.715 74.2658C353.476 74.2658 350.246 75.5605 348.026 78.15C345.805 80.6399 344.493 83.6278 344.089 87.1137Z" fill="#313131"/>
<path d="M398.765 132.53V87.4125C398.765 80.7395 400.278 74.9131 403.306 69.9333C406.435 64.8539 410.775 60.9199 416.326 58.1312C421.877 55.2429 428.488 53.7987 436.158 53.7987C441.911 53.7987 447.008 54.6453 451.449 56.3384C455.991 58.0316 459.725 60.2227 462.652 62.9118H462.955C465.882 60.2227 469.566 58.0316 474.007 56.3384C478.447 54.6453 483.595 53.7987 489.449 53.7987C497.119 53.7987 503.78 55.2429 509.432 58.1312C515.084 60.9199 519.424 64.8539 522.452 69.9333C525.48 74.9131 526.994 80.7395 526.994 87.4125V132.53H500.803L500.652 88.6076C500.652 85.4205 499.541 82.6318 497.321 80.2415C495.101 77.8512 492.123 76.6561 488.389 76.6561C484.654 76.6561 481.627 77.8512 479.305 80.2415C477.085 82.6318 475.975 85.4205 475.975 88.6076V132.53H449.784V88.6076C449.784 85.4205 448.623 82.6318 446.302 80.2415C443.98 77.8512 440.953 76.6561 437.218 76.6561C433.585 76.6561 430.607 77.8512 428.286 80.2415C426.066 82.6318 424.955 85.4205 424.955 88.6076V132.53H398.765Z" fill="#313131"/>
<path d="M575.328 132.53C566.547 132.53 558.776 130.986 552.014 127.898C545.252 124.811 539.953 120.379 536.118 114.602C532.282 108.826 530.365 102.003 530.365 94.1352C530.365 85.4703 532.232 78.15 535.966 72.1742C539.701 66.0989 544.596 61.5174 550.651 58.43C556.808 55.3425 563.469 53.7987 570.635 53.7987C578.205 53.7987 584.815 55.3923 590.467 58.5793C596.119 61.6668 600.459 66.0491 603.487 71.7261C606.616 77.403 608.18 84.0262 608.18 91.5955C608.18 93.189 608.079 95.0316 607.878 97.1231C607.676 99.115 607.423 100.808 607.121 102.202H557.615C558.423 105.489 560.239 107.929 563.065 109.523C565.891 111.116 569.474 111.913 573.814 111.913H599.551V132.53H575.328ZM556.707 87.1137H583.352C583.251 83.5282 582.09 80.4905 579.87 78.0006C577.65 75.5107 574.47 74.2658 570.332 74.2658C566.093 74.2658 562.864 75.5605 560.643 78.15C558.423 80.6399 557.111 83.6278 556.707 87.1137Z" fill="#313131"/>
<path d="M611.533 132.53V113.108H648.473C649.886 113.108 650.996 112.71 651.804 111.913C652.611 111.116 653.015 110.071 653.015 108.776C653.015 107.68 652.611 106.684 651.804 105.788C650.996 104.892 649.886 104.443 648.473 104.443H635.756C630.71 104.443 626.118 103.597 621.98 101.904C617.841 100.211 614.511 97.5713 611.988 93.9858C609.565 90.4003 608.354 85.7193 608.354 79.9427C608.354 75.4609 609.464 71.3775 611.685 67.6924C614.006 64.0073 617.085 61.0693 620.92 58.8781C624.755 56.687 628.994 55.5915 633.637 55.5915H672.242V74.8633H638.784C637.573 74.8633 636.564 75.2617 635.756 76.0585C634.949 76.8553 634.545 77.8512 634.545 79.0464C634.545 80.1419 634.949 81.0881 635.756 81.8849C636.564 82.6816 637.573 83.08 638.784 83.08H650.896C659.575 83.08 666.438 85.0221 671.485 88.9064C676.531 92.7907 679.054 99.115 679.054 107.879C679.054 112.361 677.894 116.495 675.572 120.279C673.251 123.964 670.122 126.952 666.186 129.243C662.351 131.434 658.011 132.53 653.166 132.53H611.533Z" fill="#313131"/>
<path d="M694.703 134.472C690.565 134.472 687.033 132.978 684.106 129.99C681.179 127.002 679.716 123.466 679.716 119.383C679.716 115.299 681.179 111.814 684.106 108.925C687.033 105.937 690.565 104.443 694.703 104.443C698.942 104.443 702.525 105.937 705.452 108.925C708.48 111.814 709.994 115.299 709.994 119.383C709.994 123.466 708.48 127.002 705.452 129.99C702.525 132.978 698.942 134.472 694.703 134.472Z" fill="#313131"/>
<path d="M711.502 132.533V55.7467H737.735V132.533H711.502ZM724.618 47.3971C720.598 47.3971 717.13 45.9558 714.216 43.0732C711.401 40.1906 709.994 36.811 709.994 32.9344C709.994 28.9584 711.401 25.5788 714.216 22.7956C717.13 19.913 720.598 18.4717 724.618 18.4717C728.639 18.4717 732.056 19.913 734.87 22.7956C737.785 25.5788 739.242 28.9584 739.242 32.9344C739.242 36.811 737.785 40.1906 734.87 43.0732C732.056 45.9558 728.639 47.3971 724.618 47.3971Z" fill="#3180C8"/>
<path d="M783.629 134.472C792.072 134.472 799.46 132.782 805.792 129.402C812.224 125.923 817.2 121.053 820.717 114.79C824.235 108.528 825.994 101.173 825.994 92.7236V23.6902H799.761V62.9036H799.158C796.846 60.021 793.881 57.8341 790.263 56.3431C786.645 54.7527 782.675 53.9575 778.353 53.9575C771.217 53.9575 764.834 55.5976 759.206 58.8779C753.678 62.0587 749.305 66.5814 746.089 72.446C742.873 78.3106 741.265 85.1195 741.265 92.8727C741.265 101.024 742.973 108.23 746.391 114.492C749.808 120.754 754.683 125.675 761.015 129.253C767.347 132.732 774.885 134.472 783.629 134.472ZM783.629 111.958C778.905 111.958 775.086 110.268 772.171 106.888C769.357 103.509 767.95 99.284 767.95 94.2146C767.95 89.2446 769.357 85.1195 772.171 81.8393C775.086 78.5591 778.905 76.919 783.629 76.919C788.253 76.919 792.022 78.5591 794.937 81.8393C797.852 85.1195 799.309 89.2446 799.309 94.2146C799.309 99.284 797.852 103.509 794.937 106.888C792.022 110.268 788.253 111.958 783.629 111.958Z" fill="#3180C8"/>
<path d="M233.957 187.725C233.399 186.651 232.624 185.845 231.632 185.307C230.64 184.749 229.493 184.47 228.191 184.47C226.765 184.47 225.494 184.791 224.378 185.431C223.262 186.072 222.384 186.981 221.743 188.159C221.123 189.337 220.813 190.701 220.813 192.251C220.813 193.801 221.123 195.176 221.743 196.374C222.384 197.552 223.262 198.462 224.378 199.102C225.494 199.743 226.765 200.063 228.191 200.063C230.113 200.063 231.674 199.526 232.872 198.451C234.071 197.377 234.805 195.92 235.073 194.08H226.982V191.259H238.855V194.018C238.628 195.692 238.029 197.232 237.057 198.637C236.107 200.043 234.856 201.169 233.306 202.016C231.777 202.843 230.072 203.256 228.191 203.256C226.166 203.256 224.316 202.791 222.642 201.861C220.968 200.911 219.635 199.598 218.643 197.924C217.672 196.25 217.186 194.359 217.186 192.251C217.186 190.143 217.672 188.252 218.643 186.578C219.635 184.904 220.968 183.602 222.642 182.672C224.337 181.722 226.187 181.246 228.191 181.246C230.485 181.246 232.521 181.815 234.298 182.951C236.096 184.067 237.398 185.659 238.204 187.725H233.957Z" fill="#303030"/>
<path d="M245.565 180.13V203.07H242.031V180.13H245.565Z" fill="#303030"/>
<path d="M257.304 203.349C255.692 203.349 254.235 202.988 252.933 202.264C251.631 201.52 250.608 200.487 249.864 199.164C249.12 197.821 248.748 196.271 248.748 194.514C248.748 192.778 249.13 191.239 249.895 189.895C250.659 188.552 251.703 187.519 253.026 186.795C254.348 186.072 255.826 185.71 257.459 185.71C259.091 185.71 260.569 186.072 261.892 186.795C263.214 187.519 264.258 188.552 265.023 189.895C265.787 191.239 266.17 192.778 266.17 194.514C266.17 196.25 265.777 197.79 264.992 199.133C264.206 200.477 263.132 201.52 261.768 202.264C260.424 202.988 258.936 203.349 257.304 203.349ZM257.304 200.28C258.213 200.28 259.06 200.063 259.846 199.629C260.652 199.195 261.303 198.544 261.799 197.676C262.295 196.808 262.543 195.754 262.543 194.514C262.543 193.274 262.305 192.231 261.83 191.383C261.354 190.515 260.724 189.864 259.939 189.43C259.153 188.996 258.306 188.779 257.397 188.779C256.487 188.779 255.64 188.996 254.855 189.43C254.09 189.864 253.48 190.515 253.026 191.383C252.571 192.231 252.344 193.274 252.344 194.514C252.344 196.354 252.809 197.78 253.739 198.792C254.689 199.784 255.878 200.28 257.304 200.28Z" fill="#303030"/>
<path d="M272.887 188.531C273.487 187.705 274.303 187.033 275.336 186.516C276.39 185.979 277.558 185.71 278.839 185.71C280.348 185.71 281.712 186.072 282.931 186.795C284.151 187.519 285.112 188.552 285.814 189.895C286.517 191.218 286.868 192.737 286.868 194.452C286.868 196.168 286.517 197.707 285.814 199.071C285.112 200.415 284.14 201.469 282.9 202.233C281.681 202.977 280.327 203.349 278.839 203.349C277.517 203.349 276.339 203.091 275.305 202.574C274.293 202.058 273.487 201.396 272.887 200.59V203.07H269.353V180.13H272.887V188.531ZM283.272 194.452C283.272 193.274 283.024 192.262 282.528 191.414C282.053 190.546 281.412 189.895 280.606 189.461C279.821 189.007 278.974 188.779 278.064 188.779C277.176 188.779 276.328 189.007 275.522 189.461C274.737 189.916 274.096 190.577 273.6 191.445C273.125 192.313 272.887 193.336 272.887 194.514C272.887 195.692 273.125 196.726 273.6 197.614C274.096 198.482 274.737 199.144 275.522 199.598C276.328 200.053 277.176 200.28 278.064 200.28C278.974 200.28 279.821 200.053 280.606 199.598C281.412 199.123 282.053 198.441 282.528 197.552C283.024 196.664 283.272 195.63 283.272 194.452Z" fill="#303030"/>
<path d="M288.875 194.452C288.875 192.737 289.226 191.218 289.929 189.895C290.652 188.573 291.624 187.55 292.843 186.826C294.083 186.082 295.447 185.71 296.935 185.71C298.278 185.71 299.446 185.979 300.438 186.516C301.451 187.033 302.257 187.684 302.856 188.469V185.989H306.421V203.07H302.856V200.528C302.257 201.334 301.44 202.006 300.407 202.543C299.374 203.081 298.196 203.349 296.873 203.349C295.406 203.349 294.062 202.977 292.843 202.233C291.624 201.469 290.652 200.415 289.929 199.071C289.226 197.707 288.875 196.168 288.875 194.452ZM302.856 194.514C302.856 193.336 302.608 192.313 302.112 191.445C301.637 190.577 301.006 189.916 300.221 189.461C299.436 189.007 298.588 188.779 297.679 188.779C296.77 188.779 295.922 189.007 295.137 189.461C294.352 189.895 293.711 190.546 293.215 191.414C292.74 192.262 292.502 193.274 292.502 194.452C292.502 195.63 292.74 196.664 293.215 197.552C293.711 198.441 294.352 199.123 295.137 199.598C295.943 200.053 296.79 200.28 297.679 200.28C298.588 200.28 299.436 200.053 300.221 199.598C301.006 199.144 301.637 198.482 302.112 197.614C302.608 196.726 302.856 195.692 302.856 194.514Z" fill="#303030"/>
<path d="M314.287 180.13V203.07H310.753V180.13H314.287Z" fill="#303030"/>
<path d="M329.893 181.525V203.07H326.359V181.525H329.893Z" fill="#303030"/>
<path d="M342.841 185.71C344.184 185.71 345.383 185.989 346.437 186.547C347.512 187.105 348.349 187.932 348.948 189.027C349.547 190.123 349.847 191.445 349.847 192.995V203.07H346.344V193.522C346.344 191.993 345.962 190.825 345.197 190.019C344.432 189.193 343.389 188.779 342.066 188.779C340.743 188.779 339.689 189.193 338.904 190.019C338.139 190.825 337.757 191.993 337.757 193.522V203.07H334.223V185.989H337.757V187.942C338.336 187.24 339.069 186.692 339.958 186.299C340.867 185.907 341.828 185.71 342.841 185.71Z" fill="#303030"/>
<path d="M361.206 188.872H358.044V203.07H354.479V188.872H352.464V185.989H354.479V184.78C354.479 182.817 354.996 181.391 356.029 180.502C357.083 179.593 358.726 179.138 360.958 179.138V182.083C359.883 182.083 359.129 182.29 358.695 182.703C358.261 183.096 358.044 183.788 358.044 184.78V185.989H361.206V188.872Z" fill="#303030"/>
<path d="M371.437 203.349C369.825 203.349 368.368 202.988 367.066 202.264C365.764 201.52 364.741 200.487 363.997 199.164C363.253 197.821 362.881 196.271 362.881 194.514C362.881 192.778 363.263 191.239 364.028 189.895C364.793 188.552 365.836 187.519 367.159 186.795C368.482 186.072 369.959 185.71 371.592 185.71C373.225 185.71 374.702 186.072 376.025 186.795C377.348 187.519 378.391 188.552 379.156 189.895C379.921 191.239 380.303 192.778 380.303 194.514C380.303 196.25 379.91 197.79 379.125 199.133C378.34 200.477 377.265 201.52 375.901 202.264C374.558 202.988 373.07 203.349 371.437 203.349ZM371.437 200.28C372.346 200.28 373.194 200.063 373.979 199.629C374.785 199.195 375.436 198.544 375.932 197.676C376.428 196.808 376.676 195.754 376.676 194.514C376.676 193.274 376.438 192.231 375.963 191.383C375.488 190.515 374.857 189.864 374.072 189.43C373.287 188.996 372.439 188.779 371.53 188.779C370.621 188.779 369.773 188.996 368.988 189.43C368.223 189.864 367.614 190.515 367.159 191.383C366.704 192.231 366.477 193.274 366.477 194.514C366.477 196.354 366.942 197.78 367.872 198.792C368.823 199.784 370.011 200.28 371.437 200.28Z" fill="#303030"/>
<path d="M387.021 188.469C387.537 187.601 388.219 186.93 389.066 186.454C389.934 185.958 390.957 185.71 392.135 185.71V189.368H391.236C389.852 189.368 388.798 189.72 388.075 190.422C387.372 191.125 387.021 192.344 387.021 194.08V203.07H383.486V185.989H387.021V188.469Z" fill="#303030"/>
<path d="M415.751 185.71C417.094 185.71 418.293 185.989 419.347 186.547C420.422 187.105 421.259 187.932 421.858 189.027C422.478 190.123 422.788 191.445 422.788 192.995V203.07H419.285V193.522C419.285 191.993 418.903 190.825 418.138 190.019C417.373 189.193 416.33 188.779 415.007 188.779C413.684 188.779 412.63 189.193 411.845 190.019C411.08 190.825 410.698 191.993 410.698 193.522V203.07H407.195V193.522C407.195 191.993 406.813 190.825 406.048 190.019C405.283 189.193 404.24 188.779 402.917 188.779C401.594 188.779 400.54 189.193 399.755 190.019C398.99 190.825 398.608 191.993 398.608 193.522V203.07H395.074V185.989H398.608V187.942C399.187 187.24 399.92 186.692 400.809 186.299C401.698 185.907 402.648 185.71 403.661 185.71C405.025 185.71 406.244 186 407.319 186.578C408.394 187.157 409.22 187.994 409.799 189.089C410.316 188.056 411.122 187.24 412.217 186.64C413.312 186.02 414.49 185.71 415.751 185.71Z" fill="#303030"/>
<path d="M425.797 194.452C425.797 192.737 426.148 191.218 426.851 189.895C427.574 188.573 428.546 187.55 429.765 186.826C431.005 186.082 432.369 185.71 433.857 185.71C435.2 185.71 436.368 185.979 437.36 186.516C438.373 187.033 439.179 187.684 439.778 188.469V185.989H443.343V203.07H439.778V200.528C439.179 201.334 438.362 202.006 437.329 202.543C436.296 203.081 435.118 203.349 433.795 203.349C432.328 203.349 430.984 202.977 429.765 202.233C428.546 201.469 427.574 200.415 426.851 199.071C426.148 197.707 425.797 196.168 425.797 194.452ZM439.778 194.514C439.778 193.336 439.53 192.313 439.034 191.445C438.559 190.577 437.928 189.916 437.143 189.461C436.358 189.007 435.51 188.779 434.601 188.779C433.692 188.779 432.844 189.007 432.059 189.461C431.274 189.895 430.633 190.546 430.137 191.414C429.662 192.262 429.424 193.274 429.424 194.452C429.424 195.63 429.662 196.664 430.137 197.552C430.633 198.441 431.274 199.123 432.059 199.598C432.865 200.053 433.712 200.28 434.601 200.28C435.51 200.28 436.358 200.053 437.143 199.598C437.928 199.144 438.559 198.482 439.034 197.614C439.53 196.726 439.778 195.692 439.778 194.514Z" fill="#303030"/>
<path d="M451.798 188.872V198.327C451.798 198.968 451.942 199.433 452.232 199.722C452.542 199.991 453.058 200.125 453.782 200.125H455.952V203.07H453.162C451.57 203.07 450.351 202.698 449.504 201.954C448.656 201.21 448.233 200.001 448.233 198.327V188.872H446.218V185.989H448.233V181.742H451.798V185.989H455.952V188.872H451.798Z" fill="#303030"/>
<path d="M460.697 183.726C460.056 183.726 459.519 183.509 459.085 183.075C458.651 182.641 458.434 182.104 458.434 181.463C458.434 180.823 458.651 180.285 459.085 179.851C459.519 179.417 460.056 179.2 460.697 179.2C461.317 179.2 461.844 179.417 462.278 179.851C462.712 180.285 462.929 180.823 462.929 181.463C462.929 182.104 462.712 182.641 462.278 183.075C461.844 183.509 461.317 183.726 460.697 183.726ZM462.433 185.989V203.07H458.899V185.989H462.433Z" fill="#303030"/>
<path d="M474.172 203.349C472.56 203.349 471.103 202.988 469.801 202.264C468.499 201.52 467.476 200.487 466.732 199.164C465.988 197.821 465.616 196.271 465.616 194.514C465.616 192.778 465.998 191.239 466.763 189.895C467.527 188.552 468.571 187.519 469.894 186.795C471.216 186.072 472.694 185.71 474.327 185.71C475.959 185.71 477.437 186.072 478.76 186.795C480.082 187.519 481.126 188.552 481.891 189.895C482.655 191.239 483.038 192.778 483.038 194.514C483.038 196.25 482.645 197.79 481.86 199.133C481.074 200.477 480 201.52 478.636 202.264C477.292 202.988 475.804 203.349 474.172 203.349ZM474.172 200.28C475.081 200.28 475.928 200.063 476.714 199.629C477.52 199.195 478.171 198.544 478.667 197.676C479.163 196.808 479.411 195.754 479.411 194.514C479.411 193.274 479.173 192.231 478.698 191.383C478.222 190.515 477.592 189.864 476.807 189.43C476.021 188.996 475.174 188.779 474.265 188.779C473.355 188.779 472.508 188.996 471.723 189.43C470.958 189.864 470.348 190.515 469.894 191.383C469.439 192.231 469.212 193.274 469.212 194.514C469.212 196.354 469.677 197.78 470.607 198.792C471.557 199.784 472.746 200.28 474.172 200.28Z" fill="#303030"/>
<path d="M494.839 185.71C496.183 185.71 497.381 185.989 498.435 186.547C499.51 187.105 500.347 187.932 500.946 189.027C501.546 190.123 501.845 191.445 501.845 192.995V203.07H498.342V193.522C498.342 191.993 497.96 190.825 497.195 190.019C496.431 189.193 495.387 188.779 494.064 188.779C492.742 188.779 491.688 189.193 490.902 190.019C490.138 190.825 489.755 191.993 489.755 193.522V203.07H486.221V185.989H489.755V187.942C490.334 187.24 491.068 186.692 491.956 186.299C492.866 185.907 493.827 185.71 494.839 185.71Z" fill="#303030"/>
<path d="M527.705 181.525V184.408H521.97V203.07H518.436V184.408H512.67V181.525H527.705Z" fill="#303030"/>
<path d="M546.629 194.111C546.629 194.752 546.588 195.331 546.505 195.847H533.454C533.557 197.211 534.064 198.307 534.973 199.133C535.882 199.96 536.998 200.373 538.321 200.373C540.222 200.373 541.565 199.578 542.351 197.986H546.164C545.647 199.557 544.707 200.849 543.343 201.861C542 202.853 540.325 203.349 538.321 203.349C536.688 203.349 535.221 202.988 533.919 202.264C532.637 201.52 531.625 200.487 530.881 199.164C530.157 197.821 529.796 196.271 529.796 194.514C529.796 192.758 530.147 191.218 530.85 189.895C531.573 188.552 532.576 187.519 533.857 186.795C535.159 186.072 536.647 185.71 538.321 185.71C539.933 185.71 541.369 186.062 542.63 186.764C543.891 187.467 544.872 188.459 545.575 189.74C546.277 191.001 546.629 192.458 546.629 194.111ZM542.94 192.995C542.919 191.693 542.454 190.65 541.545 189.864C540.635 189.079 539.509 188.686 538.166 188.686C536.946 188.686 535.903 189.079 535.035 189.864C534.167 190.629 533.65 191.673 533.485 192.995H542.94Z" fill="#303030"/>
<path d="M548.619 194.514C548.619 192.758 548.97 191.218 549.673 189.895C550.396 188.552 551.388 187.519 552.649 186.795C553.909 186.072 555.356 185.71 556.989 185.71C559.055 185.71 560.76 186.206 562.104 187.198C563.468 188.17 564.387 189.565 564.863 191.383H561.05C560.74 190.536 560.244 189.875 559.562 189.399C558.88 188.924 558.022 188.686 556.989 188.686C555.542 188.686 554.385 189.203 553.517 190.236C552.669 191.249 552.246 192.675 552.246 194.514C552.246 196.354 552.669 197.79 553.517 198.823C554.385 199.857 555.542 200.373 556.989 200.373C559.035 200.373 560.388 199.474 561.05 197.676H564.863C564.367 199.412 563.437 200.797 562.073 201.83C560.709 202.843 559.014 203.349 556.989 203.349C555.356 203.349 553.909 202.988 552.649 202.264C551.388 201.52 550.396 200.487 549.673 199.164C548.97 197.821 548.619 196.271 548.619 194.514Z" fill="#303030"/>
<path d="M576.91 185.71C578.212 185.71 579.369 185.989 580.382 186.547C581.415 187.105 582.221 187.932 582.8 189.027C583.399 190.123 583.699 191.445 583.699 192.995V203.07H580.196V193.522C580.196 191.993 579.813 190.825 579.049 190.019C578.284 189.193 577.24 188.779 575.918 188.779C574.595 188.779 573.541 189.193 572.756 190.019C571.991 190.825 571.609 191.993 571.609 193.522V203.07H568.075V180.13H571.609V187.973C572.208 187.25 572.962 186.692 573.872 186.299C574.802 185.907 575.814 185.71 576.91 185.71Z" fill="#303030"/>
<path d="M596.514 185.71C597.858 185.71 599.056 185.989 600.11 186.547C601.185 187.105 602.022 187.932 602.621 189.027C603.221 190.123 603.52 191.445 603.52 192.995V203.07H600.017V193.522C600.017 191.993 599.635 190.825 598.87 190.019C598.106 189.193 597.062 188.779 595.739 188.779C594.417 188.779 593.363 189.193 592.577 190.019C591.813 190.825 591.43 191.993 591.43 193.522V203.07H587.896V185.989H591.43V187.942C592.009 187.24 592.743 186.692 593.631 186.299C594.541 185.907 595.502 185.71 596.514 185.71Z" fill="#303030"/>
<path d="M615.127 203.349C613.515 203.349 612.058 202.988 610.756 202.264C609.454 201.52 608.431 200.487 607.687 199.164C606.943 197.821 606.571 196.271 606.571 194.514C606.571 192.778 606.954 191.239 607.718 189.895C608.483 188.552 609.527 187.519 610.849 186.795C612.172 186.072 613.65 185.71 615.282 185.71C616.915 185.71 618.393 186.072 619.715 186.795C621.038 187.519 622.082 188.552 622.846 189.895C623.611 191.239 623.993 192.778 623.993 194.514C623.993 196.25 623.601 197.79 622.815 199.133C622.03 200.477 620.955 201.52 619.591 202.264C618.248 202.988 616.76 203.349 615.127 203.349ZM615.127 200.28C616.037 200.28 616.884 200.063 617.669 199.629C618.475 199.195 619.126 198.544 619.622 197.676C620.118 196.808 620.366 195.754 620.366 194.514C620.366 193.274 620.129 192.231 619.653 191.383C619.178 190.515 618.548 189.864 617.762 189.43C616.977 188.996 616.13 188.779 615.22 188.779C614.311 188.779 613.464 188.996 612.678 189.43C611.914 189.864 611.304 190.515 610.849 191.383C610.395 192.231 610.167 193.274 610.167 194.514C610.167 196.354 610.632 197.78 611.562 198.792C612.513 199.784 613.701 200.28 615.127 200.28Z" fill="#303030"/>
<path d="M630.711 180.13V203.07H627.177V180.13H630.711Z" fill="#303030"/>
<path d="M642.45 203.349C640.838 203.349 639.381 202.988 638.079 202.264C636.777 201.52 635.754 200.487 635.01 199.164C634.266 197.821 633.894 196.271 633.894 194.514C633.894 192.778 634.276 191.239 635.041 189.895C635.805 188.552 636.849 187.519 638.172 186.795C639.494 186.072 640.972 185.71 642.605 185.71C644.237 185.71 645.715 186.072 647.038 186.795C648.36 187.519 649.404 188.552 650.169 189.895C650.933 191.239 651.316 192.778 651.316 194.514C651.316 196.25 650.923 197.79 650.138 199.133C649.352 200.477 648.278 201.52 646.914 202.264C645.57 202.988 644.082 203.349 642.45 203.349ZM642.45 200.28C643.359 200.28 644.206 200.063 644.992 199.629C645.798 199.195 646.449 198.544 646.945 197.676C647.441 196.808 647.689 195.754 647.689 194.514C647.689 193.274 647.451 192.231 646.976 191.383C646.5 190.515 645.87 189.864 645.085 189.43C644.299 188.996 643.452 188.779 642.543 188.779C641.633 188.779 640.786 188.996 640.001 189.43C639.236 189.864 638.626 190.515 638.172 191.383C637.717 192.231 637.49 193.274 637.49 194.514C637.49 196.354 637.955 197.78 638.885 198.792C639.835 199.784 641.024 200.28 642.45 200.28Z" fill="#303030"/>
<path d="M661.381 185.71C662.704 185.71 663.871 185.979 664.884 186.516C665.917 187.033 666.723 187.684 667.302 188.469V185.989H670.867V203.349C670.867 204.92 670.537 206.315 669.875 207.534C669.214 208.774 668.253 209.746 666.992 210.448C665.752 211.151 664.264 211.502 662.528 211.502C660.214 211.502 658.292 210.955 656.762 209.859C655.233 208.785 654.365 207.317 654.158 205.457H657.661C657.93 206.346 658.498 207.059 659.366 207.596C660.255 208.154 661.309 208.433 662.528 208.433C663.954 208.433 665.101 207.999 665.969 207.131C666.858 206.263 667.302 205.003 667.302 203.349V200.497C666.703 201.303 665.887 201.985 664.853 202.543C663.841 203.081 662.683 203.349 661.381 203.349C659.893 203.349 658.529 202.977 657.289 202.233C656.07 201.469 655.098 200.415 654.375 199.071C653.672 197.707 653.321 196.168 653.321 194.452C653.321 192.737 653.672 191.218 654.375 189.895C655.098 188.573 656.07 187.55 657.289 186.826C658.529 186.082 659.893 185.71 661.381 185.71ZM667.302 194.514C667.302 193.336 667.054 192.313 666.558 191.445C666.083 190.577 665.453 189.916 664.667 189.461C663.882 189.007 663.034 188.779 662.125 188.779C661.216 188.779 660.368 189.007 659.583 189.461C658.798 189.895 658.157 190.546 657.661 191.414C657.186 192.262 656.948 193.274 656.948 194.452C656.948 195.63 657.186 196.664 657.661 197.552C658.157 198.441 658.798 199.123 659.583 199.598C660.389 200.053 661.236 200.28 662.125 200.28C663.034 200.28 663.882 200.053 664.667 199.598C665.453 199.144 666.083 198.482 666.558 197.614C667.054 196.726 667.302 195.692 667.302 194.514Z" fill="#303030"/>
<path d="M690.575 185.989L680.097 211.099H676.439L679.911 202.791L673.184 185.989H677.121L681.926 199.009L686.917 185.989H690.575Z" fill="#303030"/>
<path d="M699.497 192.251C699.497 190.143 699.982 188.252 700.954 186.578C701.946 184.904 703.279 183.602 704.953 182.672C706.647 181.722 708.497 181.246 710.502 181.246C712.796 181.246 714.831 181.815 716.609 182.951C718.407 184.067 719.709 185.659 720.515 187.725H716.268C715.71 186.589 714.935 185.741 713.943 185.183C712.951 184.625 711.804 184.346 710.502 184.346C709.076 184.346 707.805 184.667 706.689 185.307C705.573 185.948 704.694 186.868 704.054 188.066C703.434 189.265 703.124 190.66 703.124 192.251C703.124 193.843 703.434 195.238 704.054 196.436C704.694 197.635 705.573 198.565 706.689 199.226C707.805 199.867 709.076 200.187 710.502 200.187C711.804 200.187 712.951 199.908 713.943 199.35C714.935 198.792 715.71 197.945 716.268 196.808H720.515C719.709 198.875 718.407 200.466 716.609 201.582C714.831 202.698 712.796 203.256 710.502 203.256C708.476 203.256 706.627 202.791 704.953 201.861C703.279 200.911 701.946 199.598 700.954 197.924C699.982 196.25 699.497 194.359 699.497 192.251Z" fill="#303030"/>
<path d="M731.75 203.349C730.138 203.349 728.681 202.988 727.379 202.264C726.077 201.52 725.054 200.487 724.31 199.164C723.566 197.821 723.194 196.271 723.194 194.514C723.194 192.778 723.577 191.239 724.341 189.895C725.106 188.552 726.15 187.519 727.472 186.795C728.795 186.072 730.273 185.71 731.905 185.71C733.538 185.71 735.016 186.072 736.338 186.795C737.661 187.519 738.705 188.552 739.469 189.895C740.234 191.239 740.616 192.778 740.616 194.514C740.616 196.25 740.224 197.79 739.438 199.133C738.653 200.477 737.578 201.52 736.214 202.264C734.871 202.988 733.383 203.349 731.75 203.349ZM731.75 200.28C732.66 200.28 733.507 200.063 734.292 199.629C735.098 199.195 735.749 198.544 736.245 197.676C736.741 196.808 736.989 195.754 736.989 194.514C736.989 193.274 736.752 192.231 736.276 191.383C735.801 190.515 735.171 189.864 734.385 189.43C733.6 188.996 732.753 188.779 731.843 188.779C730.934 188.779 730.087 188.996 729.301 189.43C728.537 189.864 727.927 190.515 727.472 191.383C727.018 192.231 726.79 193.274 726.79 194.514C726.79 196.354 727.255 197.78 728.185 198.792C729.136 199.784 730.324 200.28 731.75 200.28Z" fill="#303030"/>
<path d="M764.477 185.71C765.82 185.71 767.019 185.989 768.073 186.547C769.147 187.105 769.984 187.932 770.584 189.027C771.204 190.123 771.514 191.445 771.514 192.995V203.07H768.011V193.522C768.011 191.993 767.628 190.825 766.864 190.019C766.099 189.193 765.055 188.779 763.733 188.779C762.41 188.779 761.356 189.193 760.571 190.019C759.806 190.825 759.424 191.993 759.424 193.522V203.07H755.921V193.522C755.921 191.993 755.538 190.825 754.774 190.019C754.009 189.193 752.965 188.779 751.643 188.779C750.32 188.779 749.266 189.193 748.481 190.019C747.716 190.825 747.334 191.993 747.334 193.522V203.07H743.8V185.989H747.334V187.942C747.912 187.24 748.646 186.692 749.535 186.299C750.423 185.907 751.374 185.71 752.387 185.71C753.751 185.71 754.97 186 756.045 186.578C757.119 187.157 757.946 187.994 758.525 189.089C759.041 188.056 759.847 187.24 760.943 186.64C762.038 186.02 763.216 185.71 764.477 185.71Z" fill="#303030"/>
<path d="M779.235 188.5C779.834 187.715 780.65 187.054 781.684 186.516C782.717 185.979 783.885 185.71 785.187 185.71C786.675 185.71 788.028 186.082 789.248 186.826C790.488 187.55 791.459 188.573 792.162 189.895C792.864 191.218 793.216 192.737 793.216 194.452C793.216 196.168 792.864 197.707 792.162 199.071C791.459 200.415 790.488 201.469 789.248 202.233C788.028 202.977 786.675 203.349 785.187 203.349C783.885 203.349 782.727 203.091 781.715 202.574C780.702 202.037 779.875 201.376 779.235 200.59V211.192H775.701V185.989H779.235V188.5ZM789.62 194.452C789.62 193.274 789.372 192.262 788.876 191.414C788.4 190.546 787.76 189.895 786.954 189.461C786.168 189.007 785.321 188.779 784.412 188.779C783.523 188.779 782.676 189.007 781.87 189.461C781.084 189.916 780.444 190.577 779.948 191.445C779.472 192.313 779.235 193.336 779.235 194.514C779.235 195.692 779.472 196.726 779.948 197.614C780.444 198.482 781.084 199.144 781.87 199.598C782.676 200.053 783.523 200.28 784.412 200.28C785.321 200.28 786.168 200.053 786.954 199.598C787.76 199.123 788.4 198.441 788.876 197.552C789.372 196.664 789.62 195.63 789.62 194.452Z" fill="#303030"/>
<path d="M795.222 194.452C795.222 192.737 795.574 191.218 796.276 189.895C797 188.573 797.971 187.55 799.19 186.826C800.43 186.082 801.794 185.71 803.282 185.71C804.626 185.71 805.793 185.979 806.785 186.516C807.798 187.033 808.604 187.684 809.203 188.469V185.989H812.768V203.07H809.203V200.528C808.604 201.334 807.788 202.006 806.754 202.543C805.721 203.081 804.543 203.349 803.22 203.349C801.753 203.349 800.41 202.977 799.19 202.233C797.971 201.469 797 200.415 796.276 199.071C795.574 197.707 795.222 196.168 795.222 194.452ZM809.203 194.514C809.203 193.336 808.955 192.313 808.459 191.445C807.984 190.577 807.354 189.916 806.568 189.461C805.783 189.007 804.936 188.779 804.026 188.779C803.117 188.779 802.27 189.007 801.484 189.461C800.699 189.895 800.059 190.546 799.562 191.414C799.087 192.262 798.849 193.274 798.849 194.452C798.849 195.63 799.087 196.664 799.562 197.552C800.059 198.441 800.699 199.123 801.484 199.598C802.29 200.053 803.138 200.28 804.026 200.28C804.936 200.28 805.783 200.053 806.568 199.598C807.354 199.144 807.984 198.482 808.459 197.614C808.955 196.726 809.203 195.692 809.203 194.514Z" fill="#303030"/>
<path d="M825.718 185.71C827.062 185.71 828.26 185.989 829.314 186.547C830.389 187.105 831.226 187.932 831.825 189.027C832.425 190.123 832.724 191.445 832.724 192.995V203.07H829.221V193.522C829.221 191.993 828.839 190.825 828.074 190.019C827.31 189.193 826.266 188.779 824.943 188.779C823.621 188.779 822.567 189.193 821.781 190.019C821.017 190.825 820.634 191.993 820.634 193.522V203.07H817.1V185.989H820.634V187.942C821.213 187.24 821.947 186.692 822.835 186.299C823.745 185.907 824.706 185.71 825.718 185.71Z" fill="#303030"/>
<path d="M852.298 185.989L841.82 211.099H838.162L841.634 202.791L834.907 185.989H838.844L843.649 199.009L848.64 185.989H852.298Z" fill="#303030"/>
<defs>
<linearGradient id="paint0_linear_182_1671" x1="93.5615" y1="0.471676" x2="184.243" y2="238.75" gradientUnits="userSpaceOnUse">
<stop stop-color="#3043A9"/>
<stop offset="1" stop-color="#3180C8"/>
</linearGradient>
<linearGradient id="paint1_linear_182_1671" x1="93.5615" y1="0.471676" x2="184.243" y2="238.75" gradientUnits="userSpaceOnUse">
<stop stop-color="#3043A9"/>
<stop offset="1" stop-color="#3180C8"/>
</linearGradient>
</defs>
</svg>
