<svg width="11" height="11" viewBox="0 0 11 11" fill="none" xmlns="http://www.w3.org/2000/svg">
<path d="M10.8141 4.08249C10.7332 3.82968 10.4916 3.65592 10.1513 3.60572L7.4523 3.20734L6.24527 0.723356C6.09305 0.410124 5.85568 0.230469 5.594 0.230469C5.33232 0.230469 5.09495 0.410124 4.94275 0.723356L3.73577 3.20732L1.03672 3.6057C0.696357 3.6559 0.454788 3.82968 0.373909 4.08245C0.293052 4.33523 0.387932 4.62002 0.634176 4.86383L2.58721 6.79731L2.12615 9.52757C2.06553 9.88669 2.16849 10.1015 2.26556 10.2184C2.3791 10.3551 2.54473 10.4305 2.73195 10.4305C2.87349 10.4305 3.02424 10.3883 3.17991 10.3052L5.594 9.0161L8.00809 10.3051C8.1638 10.3883 8.31453 10.4304 8.45609 10.4304H8.45613C8.64338 10.4304 8.80901 10.3551 8.92254 10.2183C9.0196 10.1015 9.12258 9.88667 9.06193 9.52752L8.60081 6.79733L10.5538 4.86387C10.8001 4.62006 10.895 4.33525 10.8141 4.08249V4.08249Z" fill="#C9C9C9"/>
</svg>
