<svg width="12" height="11" viewBox="0 0 12 11" fill="none" xmlns="http://www.w3.org/2000/svg">
<g clip-path="url(#clip0_9_2093)">
<path d="M11.3805 4.08249C11.2996 3.82968 11.0581 3.65592 10.7177 3.60572L8.0187 3.20734L6.81168 0.723356C6.65946 0.410124 6.42209 0.230469 6.16041 0.230469C5.89873 0.230469 5.66136 0.410124 5.50916 0.723356L4.30217 3.20732L1.60313 3.6057C1.26276 3.6559 1.02119 3.82968 0.940316 4.08245C0.859458 4.33523 0.954339 4.62002 1.20058 4.86383L3.15362 6.79731L2.69256 9.52757C2.63194 9.88669 2.73489 10.1015 2.83197 10.2184C2.94551 10.3551 3.11114 10.4305 3.29836 10.4305C3.4399 10.4305 3.59065 10.3883 3.74632 10.3052L6.16041 9.0161L8.5745 10.3051C8.73021 10.3883 8.88094 10.4304 9.0225 10.4304H9.02254C9.20978 10.4304 9.37541 10.3551 9.48895 10.2183C9.586 10.1015 9.68898 9.88667 9.62834 9.52752L9.16722 6.79733L11.1202 4.86387C11.3665 4.62006 11.4614 4.33525 11.3805 4.08249Z" fill="#FF8412"/>
</g>
<defs>
<clipPath id="clip0_9_2093">
<rect width="10.4966" height="10.6609" fill="white" transform="translate(0.912109)"/>
</clipPath>
</defs>
</svg>
